<svg width="97" height="35" viewBox="0 0 97 35" fill="none" xmlns="http://www.w3.org/2000/svg">
<rect x="0.660156" y="0.187683" width="95.4917" height="34.5395" rx="17.2698" fill="#58C166"/>
<path d="M30.5362 24.0052L30.5362 11.845M24.9238 16.522L29.8748 11.5711C30.2401 11.2058 30.8324 11.2058 31.1976 11.5711L36.1486 16.522" stroke="white" stroke-width="1.8708" stroke-linecap="round"/>
<path d="M46.4025 20.3322V18.6859L51.2965 11.6817H53.736V18.5063H55.053V20.3322H53.736V22.4575H51.6407V20.3322H46.4025ZM51.7754 13.9266L48.7073 18.5063H51.7754V13.9266ZM63.5559 13.3579H58.7068V15.9172C58.9163 15.6577 59.2157 15.4482 59.6048 15.2886C59.9939 15.1189 60.408 15.0341 60.847 15.0341C61.6452 15.0341 62.2987 15.2087 62.8076 15.558C63.3165 15.9072 63.6856 16.3562 63.9151 16.9049C64.1446 17.4437 64.2593 18.0224 64.2593 18.641C64.2593 19.7885 63.9301 20.7114 63.2716 21.4098C62.623 22.1082 61.6951 22.4575 60.4878 22.4575C59.3504 22.4575 58.4424 22.1731 57.7639 21.6044C57.0854 21.0357 56.7013 20.2923 56.6115 19.3744H58.6469C58.7367 19.7735 58.9363 20.0928 59.2456 20.3322C59.5649 20.5717 59.969 20.6914 60.4579 20.6914C61.0466 20.6914 61.4906 20.5068 61.7899 20.1377C62.0892 19.7685 62.2389 19.2796 62.2389 18.671C62.2389 18.0524 62.0842 17.5834 61.7749 17.2641C61.4756 16.9349 61.0316 16.7702 60.4429 16.7702C60.0238 16.7702 59.6746 16.875 59.3953 17.0845C59.1159 17.2941 58.9163 17.5734 58.7966 17.9226H56.7911V11.517H63.5559V13.3579ZM65.45 14.226C65.45 13.4677 65.6695 12.874 66.1085 12.445C66.5575 12.0159 67.1312 11.8014 67.8296 11.8014C68.5281 11.8014 69.0968 12.0159 69.5358 12.445C69.9848 12.874 70.2093 13.4677 70.2093 14.226C70.2093 14.9942 69.9848 15.5929 69.5358 16.0219C69.0968 16.451 68.5281 16.6655 67.8296 16.6655C67.1312 16.6655 66.5575 16.451 66.1085 16.0219C65.6695 15.5929 65.45 14.9942 65.45 14.226ZM75.0584 11.981L69.1766 22.4575H67.1412L73.008 11.981H75.0584ZM67.8147 13.0586C67.2659 13.0586 66.9915 13.4477 66.9915 14.226C66.9915 15.0142 67.2659 15.4083 67.8147 15.4083C68.0841 15.4083 68.2936 15.3135 68.4433 15.1239C68.5929 14.9244 68.6678 14.6251 68.6678 14.226C68.6678 13.4477 68.3834 13.0586 67.8147 13.0586ZM72.0202 20.1975C72.0202 19.4293 72.2397 18.8356 72.6787 18.4165C73.1277 17.9875 73.7014 17.773 74.3999 17.773C75.0983 17.773 75.662 17.9875 76.0911 18.4165C76.5301 18.8356 76.7496 19.4293 76.7496 20.1975C76.7496 20.9658 76.5301 21.5645 76.0911 21.9935C75.662 22.4225 75.0983 22.6371 74.3999 22.6371C73.6915 22.6371 73.1178 22.4225 72.6787 21.9935C72.2397 21.5645 72.0202 20.9658 72.0202 20.1975ZM74.3849 19.0302C73.8162 19.0302 73.5318 19.4193 73.5318 20.1975C73.5318 20.9858 73.8162 21.3799 74.3849 21.3799C74.9437 21.3799 75.223 20.9858 75.223 20.1975C75.223 19.4193 74.9437 19.0302 74.3849 19.0302Z" fill="white"/>
</svg>
