<svg width="53" height="53" viewBox="0 0 53 53" fill="none" xmlns="http://www.w3.org/2000/svg">
<rect x="0.623047" y="0.350555" width="52.2989" height="52.2989" rx="8.26667" fill="#3B295F"/>
<path d="M25.6814 22.9714L26.2659 22.3868L25.6814 22.9714ZM30.0719 27.3619L29.4873 27.9465L30.0719 27.3619ZM31.0147 27.3619L31.5992 27.9465V27.9465L31.0147 27.3619ZM39.1278 20.4179C39.4507 20.095 39.4507 19.5716 39.1278 19.2488C38.805 18.9259 38.2816 18.9259 37.9588 19.2488L39.1278 20.4179ZM17.9588 28.5821C17.6359 28.9049 17.6359 29.4284 17.9588 29.7512C18.2816 30.074 18.805 30.074 19.1278 29.7512L17.9588 28.5821ZM24.7386 22.9714L25.3231 23.5559V23.5559L24.7386 22.9714ZM33.21 17.6733C32.7534 17.6733 32.3833 18.0434 32.3833 18.5C32.3833 18.9565 32.7534 19.3266 33.21 19.3266V17.6733ZM39.05 25.1666C39.05 25.6232 39.4201 25.9933 39.8766 25.9933C40.3332 25.9933 40.7033 25.6232 40.7033 25.1666H39.05ZM39.8766 37.9933C40.3332 37.9933 40.7033 37.6232 40.7033 37.1666C40.7033 36.7101 40.3332 36.34 39.8766 36.34V37.9933ZM14.0366 15.8333C14.0366 15.3768 13.6665 15.0066 13.21 15.0066C12.7534 15.0066 12.3833 15.3768 12.3833 15.8333H14.0366ZM16.122 36.5853L16.4973 35.8488L16.122 36.5853ZM13.7913 34.2546L13.0547 34.6299L13.7913 34.2546ZM25.0968 23.5559L29.4873 27.9465L30.6564 26.7774L26.2659 22.3868L25.0968 23.5559ZM31.5992 27.9465L39.1278 20.4179L37.9588 19.2488L30.4302 26.7774L31.5992 27.9465ZM19.1278 29.7512L25.3231 23.5559L24.154 22.3868L17.9588 28.5821L19.1278 29.7512ZM29.4873 27.9465C30.0705 28.5296 31.0161 28.5296 31.5992 27.9465L30.4302 26.7774C30.4926 26.7149 30.5939 26.7149 30.6564 26.7774L29.4873 27.9465ZM26.2659 22.3868C25.6827 21.8037 24.7372 21.8037 24.154 22.3868L25.3231 23.5559C25.2606 23.6184 25.1593 23.6184 25.0968 23.5559L26.2659 22.3868ZM33.21 19.3266H39.21V17.6733H33.21V19.3266ZM39.05 19.1666V25.1666H40.7033V19.1666H39.05ZM39.21 19.3266C39.1216 19.3266 39.05 19.255 39.05 19.1666H40.7033C40.7033 18.3419 40.0347 17.6733 39.21 17.6733V19.3266ZM39.8766 36.34H21.7433V37.9933H39.8766V36.34ZM14.0366 28.6333V15.8333H12.3833V28.6333H14.0366ZM21.7433 36.34C20.2362 36.34 19.1556 36.3393 18.3077 36.2701C17.4695 36.2016 16.9318 36.0702 16.4973 35.8488L15.7467 37.3219C16.4531 37.6818 17.2326 37.8411 18.1731 37.9179C19.1039 37.994 20.2635 37.9933 21.7433 37.9933V36.34ZM12.3833 28.6333C12.3833 30.1131 12.3827 31.2727 12.4587 32.2036C12.5355 33.144 12.6948 33.9235 13.0547 34.6299L14.5278 33.8793C14.3065 33.4448 14.175 32.9071 14.1065 32.0689C14.0373 31.221 14.0366 30.1404 14.0366 28.6333H12.3833ZM16.4973 35.8488C15.6493 35.4167 14.9599 34.7273 14.5278 33.8793L13.0547 34.6299C13.6453 35.789 14.5876 36.7313 15.7467 37.3219L16.4973 35.8488Z" fill="white"/>
</svg>
