<svg width="32" height="31" viewBox="0 0 32 31" fill="none" xmlns="http://www.w3.org/2000/svg">
<path d="M15.9997 16.875C18.3469 16.875 20.2497 15.0282 20.2497 12.75C20.2497 10.4718 18.3469 8.625 15.9997 8.625C13.6525 8.625 11.7497 10.4718 11.7497 12.75M15.7339 21.4296H16.2651M15.7339 21.9453H16.2651M30.1663 15.5C30.1663 23.0939 23.8237 29.25 15.9997 29.25C8.17564 29.25 1.83301 23.0939 1.83301 15.5C1.83301 7.90608 8.17564 1.75 15.9997 1.75C23.8237 1.75 30.1663 7.90608 30.1663 15.5ZM16.708 21.6875C16.708 22.0672 16.3909 22.375 15.9997 22.375C15.6085 22.375 15.2913 22.0672 15.2913 21.6875C15.2913 21.3078 15.6085 21 15.9997 21C16.3909 21 16.708 21.3078 16.708 21.6875Z" stroke="#5C2CBD" stroke-width="2" stroke-linecap="round"/>
</svg>
