<svg width="34" height="34" viewBox="0 0 34 34" fill="none" xmlns="http://www.w3.org/2000/svg">
<path d="M3.20048 20.2197C2.9601 19.1853 2.83301 18.1075 2.83301 17C2.83301 15.8925 2.9601 14.8146 3.20048 13.7803M14.4239 3.0669C15.2592 2.91348 16.1201 2.83331 16.9997 2.83331C24.8237 2.83331 31.1663 9.17595 31.1663 17C31.1663 24.824 24.8237 31.1666 16.9997 31.1666C16.1201 31.1666 15.2592 31.0865 14.4239 30.9331M9.91634 4.72856C7.98404 5.84634 6.34026 7.4074 5.12405 9.27271M5.12405 24.7273C6.34026 26.5926 7.98404 28.1536 9.91634 29.2714M16.9997 11.3333V18.4166M16.9997 22.6666V22.6808" stroke="#5C2CBD" stroke-width="2" stroke-linecap="round"/>
</svg>
