<svg width="56" height="56" viewBox="0 0 56 56" fill="none" xmlns="http://www.w3.org/2000/svg">
<rect width="56" height="56" rx="10" fill="#58C166"/>
<path d="M21.6663 21.3333C21.6663 21.8856 22.1141 22.3333 22.6663 22.3333C23.2186 22.3333 23.6663 21.8856 23.6663 21.3333H21.6663ZM32.333 21.3333C32.333 21.8856 32.7807 22.3333 33.333 22.3333C33.8853 22.3333 34.333 21.8856 34.333 21.3333H32.333ZM24.1224 39.7094L24.5764 38.8183L24.1224 39.7094ZM22.957 38.544L23.848 38.09L22.957 38.544ZM33.0424 38.544L32.1514 38.09L33.0424 38.544ZM31.877 39.7094L31.423 38.8183L31.877 39.7094ZM31.877 29.624L31.423 30.515L31.877 29.624ZM33.0424 30.7894L32.1514 31.2434L33.0424 30.7894ZM24.1224 29.624L24.5764 30.515L24.1224 29.624ZM22.957 30.7894L23.848 31.2434L22.957 30.7894ZM33.7495 24.75C33.1972 24.75 32.7495 25.1977 32.7495 25.75C32.7495 26.3022 33.1972 26.75 33.7495 26.75V24.75ZM34.2495 26.75C34.8018 26.75 35.2495 26.3022 35.2495 25.75C35.2495 25.1977 34.8018 24.75 34.2495 24.75V26.75ZM33.7495 25.25C33.1972 25.25 32.7495 25.6977 32.7495 26.25C32.7495 26.8022 33.1972 27.25 33.7495 27.25V25.25ZM34.2495 27.25C34.8018 27.25 35.2495 26.8022 35.2495 26.25C35.2495 25.6977 34.8018 25.25 34.2495 25.25V27.25ZM19.9997 22.3333H35.9997V20.3333H19.9997V22.3333ZM37.6663 24V30.6667H39.6663V24H37.6663ZM18.333 30.6667V24H16.333V30.6667H18.333ZM35.9997 32.3333H32.2663V34.3333H35.9997V32.3333ZM23.733 32.3333H19.9997V34.3333H23.733V32.3333ZM16.333 30.6667C16.333 32.6917 17.9746 34.3333 19.9997 34.3333V32.3333C19.0792 32.3333 18.333 31.5871 18.333 30.6667H16.333ZM37.6663 30.6667C37.6663 31.5871 36.9201 32.3333 35.9997 32.3333V34.3333C38.0247 34.3333 39.6663 32.6917 39.6663 30.6667H37.6663ZM35.9997 22.3333C36.9201 22.3333 37.6663 23.0795 37.6663 24H39.6663C39.6663 21.975 38.0247 20.3333 35.9997 20.3333V22.3333ZM19.9997 20.3333C17.9746 20.3333 16.333 21.975 16.333 24H18.333C18.333 23.0795 19.0792 22.3333 19.9997 22.3333V20.3333ZM23.6663 21.3333V18.6667H21.6663V21.3333H23.6663ZM25.333 17H30.6663V15H25.333V17ZM32.333 18.6667V21.3333H34.333V18.6667H32.333ZM30.6663 17C31.5868 17 32.333 17.7462 32.333 18.6667H34.333C34.333 16.6416 32.6914 15 30.6663 15V17ZM23.6663 18.6667C23.6663 17.7462 24.4125 17 25.333 17V15C23.308 15 21.6663 16.6416 21.6663 18.6667H23.6663ZM26.933 30.3333H29.0663V28.3333H26.933V30.3333ZM32.333 33.6V35.7333H34.333V33.6H32.333ZM29.0663 39H26.933V41H29.0663V39ZM23.6663 35.7333V33.6H21.6663V35.7333H23.6663ZM26.933 39C26.1698 39 25.6575 38.9992 25.263 38.967C24.8801 38.9357 24.6971 38.8799 24.5764 38.8183L23.6684 40.6004C24.1181 40.8295 24.5936 40.919 25.1001 40.9603C25.595 41.0008 26.2028 41 26.933 41V39ZM21.6663 35.7333C21.6663 36.4636 21.6656 37.0714 21.706 37.5662C21.7474 38.0727 21.8369 38.5483 22.066 38.998L23.848 38.09C23.7865 37.9692 23.7306 37.7862 23.6994 37.4034C23.6671 37.0089 23.6663 36.4966 23.6663 35.7333H21.6663ZM24.5764 38.8183C24.2628 38.6586 24.0078 38.4036 23.848 38.09L22.066 38.998C22.4175 39.6879 22.9784 40.2488 23.6684 40.6004L24.5764 38.8183ZM32.333 35.7333C32.333 36.4966 32.3322 37.0089 32.3 37.4034C32.2687 37.7862 32.2129 37.9692 32.1514 38.09L33.9334 38.998C34.1625 38.5483 34.252 38.0727 34.2934 37.5662C34.3338 37.0714 34.333 36.4636 34.333 35.7333H32.333ZM29.0663 41C29.7966 41 30.4044 41.0008 30.8992 40.9603C31.4057 40.919 31.8813 40.8295 32.331 40.6004L31.423 38.8183C31.3022 38.8799 31.1192 38.9357 30.7364 38.967C30.3419 38.9992 29.8296 39 29.0663 39V41ZM32.1514 38.09C31.9916 38.4036 31.7366 38.6586 31.423 38.8183L32.331 40.6004C33.0209 40.2488 33.5818 39.6879 33.9334 38.998L32.1514 38.09ZM29.0663 30.3333C29.8296 30.3333 30.3419 30.3341 30.7364 30.3663C31.1192 30.3976 31.3022 30.4535 31.423 30.515L32.331 28.733C31.8813 28.5039 31.4057 28.4144 30.8992 28.373C30.4044 28.3326 29.7966 28.3333 29.0663 28.3333V30.3333ZM34.333 33.6C34.333 32.8698 34.3338 32.2619 34.2934 31.7671C34.252 31.2606 34.1625 30.7851 33.9334 30.3354L32.1514 31.2434C32.2129 31.3641 32.2687 31.5471 32.3 31.93C32.3322 32.3245 32.333 32.8368 32.333 33.6H34.333ZM31.423 30.515C31.7366 30.6748 31.9916 30.9297 32.1514 31.2434L33.9334 30.3354C33.5818 29.6454 33.0209 29.0845 32.331 28.733L31.423 30.515ZM26.933 28.3333C26.2028 28.3333 25.595 28.3326 25.1001 28.373C24.5936 28.4144 24.1181 28.5039 23.6684 28.733L24.5764 30.515C24.6971 30.4535 24.8801 30.3976 25.263 30.3663C25.6575 30.3341 26.1698 30.3333 26.933 30.3333V28.3333ZM23.6663 33.6C23.6663 32.8368 23.6671 32.3245 23.6994 31.93C23.7306 31.5471 23.7865 31.3641 23.848 31.2434L22.066 30.3354C21.8369 30.7851 21.7474 31.2606 21.706 31.7671C21.6656 32.2619 21.6663 32.8698 21.6663 33.6H23.6663ZM23.6684 28.733C22.9784 29.0845 22.4175 29.6454 22.066 30.3354L23.848 31.2434C24.0078 30.9297 24.2628 30.6748 24.5764 30.515L23.6684 28.733ZM33.6663 26C33.6663 25.8159 33.8156 25.6667 33.9997 25.6667V27.6667C34.9201 27.6667 35.6663 26.9205 35.6663 26H33.6663ZM33.9997 25.6667C34.1838 25.6667 34.333 25.8159 34.333 26H32.333C32.333 26.9205 33.0792 27.6667 33.9997 27.6667V25.6667ZM34.333 26C34.333 26.1841 34.1838 26.3333 33.9997 26.3333V24.3333C33.0792 24.3333 32.333 25.0795 32.333 26H34.333ZM33.9997 26.3333C33.8156 26.3333 33.6663 26.1841 33.6663 26H35.6663C35.6663 25.0795 34.9201 24.3333 33.9997 24.3333V26.3333ZM33.7495 26.75H34.2495V24.75H33.7495V26.75ZM33.7495 27.25H34.2495V25.25H33.7495V27.25Z" fill="white"/>
</svg>
