<svg width="56" height="56" viewBox="0 0 56 56" fill="none" xmlns="http://www.w3.org/2000/svg">
<rect width="56" height="56" rx="10" fill="#58C166"/>
<path d="M28.0003 29.3333C30.2095 29.3333 32.0003 27.5425 32.0003 25.3333C32.0003 23.1242 30.2095 21.3333 28.0003 21.3333C25.7912 21.3333 24.0003 23.1242 24.0003 25.3333M27.7502 33.7499H28.2502M27.7502 34.2499H28.2502M41.3337 28C41.3337 35.3638 35.3641 41.3333 28.0003 41.3333C20.6365 41.3333 14.667 35.3638 14.667 28C14.667 20.6362 20.6365 14.6667 28.0003 14.6667C35.3641 14.6667 41.3337 20.6362 41.3337 28ZM28.667 34C28.667 34.3682 28.3685 34.6667 28.0003 34.6667C27.6321 34.6667 27.3337 34.3682 27.3337 34C27.3337 33.6318 27.6321 33.3333 28.0003 33.3333C28.3685 33.3333 28.667 33.6318 28.667 34Z" stroke="white" stroke-width="2" stroke-linecap="round"/>
</svg>
