<svg width="112" height="24" viewBox="0 0 112 24" fill="none" xmlns="http://www.w3.org/2000/svg">
<path d="M10.4956 21.5L6.26303 14.146H3.96159V21.5H0.945914V3.11493H7.29471C8.70556 3.11493 9.89596 3.36183 10.8659 3.85563C11.8535 4.34942 12.5854 5.01075 13.0615 5.83963C13.5553 6.6685 13.8022 7.59436 13.8022 8.61723C13.8022 9.81644 13.4495 10.9098 12.7441 11.8974C12.0563 12.8674 10.9894 13.5287 9.54325 13.8814L14.0932 21.5H10.4956ZM3.96159 11.7387H7.29471C8.42339 11.7387 9.2699 11.4566 9.83423 10.8922C10.4162 10.3279 10.7072 9.56955 10.7072 8.61723C10.7072 7.66491 10.425 6.92421 9.86069 6.39515C9.29635 5.84844 8.44103 5.57509 7.29471 5.57509H3.96159V11.7387ZM29.7757 16.2622C29.7757 17.144 29.5553 17.9729 29.1144 18.7489C28.6911 19.5248 28.0562 20.1773 27.2097 20.7064C26.3809 21.2355 25.3933 21.5529 24.247 21.6587V23.8014H22.5275V21.6587C20.8698 21.5 19.5294 20.9798 18.5066 20.098C17.4837 19.2162 16.9723 18.0522 16.9723 16.6061H20.1996C20.2525 17.2939 20.473 17.8671 20.8609 18.3256C21.2489 18.7665 21.8044 19.0487 22.5275 19.1721V13.3524C21.3459 13.0526 20.3848 12.7528 19.6441 12.453C18.9034 12.1355 18.2685 11.6417 17.7394 10.9716C17.228 10.3014 16.9723 9.38437 16.9723 8.22043C16.9723 6.75667 17.4837 5.54864 18.5066 4.59632C19.5294 3.62636 20.8698 3.06203 22.5275 2.90331V0.760586H24.247V2.90331C25.7989 3.04439 27.0422 3.53819 27.9769 4.38469C28.9292 5.21356 29.4671 6.35988 29.5905 7.82363H26.3632C26.3103 7.27692 26.0987 6.79195 25.7283 6.36869C25.358 5.9278 24.8642 5.628 24.247 5.46928V11.1832C25.4285 11.4654 26.3897 11.7652 27.1304 12.0826C27.8711 12.3824 28.4971 12.8674 29.0086 13.5375C29.52 14.1901 29.7757 15.0983 29.7757 16.2622ZM20.0409 8.06171C20.0409 8.78476 20.2525 9.3491 20.6758 9.75472C21.1166 10.1603 21.7339 10.4866 22.5275 10.7335V5.38992C21.7692 5.4781 21.1607 5.75145 20.7022 6.20997C20.2613 6.6685 20.0409 7.28574 20.0409 8.06171ZM24.247 19.1721C25.0229 19.0487 25.6314 18.74 26.0722 18.2462C26.5131 17.7348 26.7336 17.1264 26.7336 16.421C26.7336 15.7155 26.5131 15.1688 26.0722 14.7809C25.649 14.3752 25.0406 14.049 24.247 13.8021V19.1721ZM33.8334 6.97712C33.9392 5.33701 34.5653 4.05844 35.7116 3.14139C36.8755 2.22434 38.3569 1.76581 40.1557 1.76581C41.3902 1.76581 42.4572 1.98626 43.3566 2.42715C44.256 2.86804 44.935 3.46764 45.3935 4.22597C45.852 4.9843 46.0813 5.83963 46.0813 6.79195C46.0813 7.88535 45.7903 8.82004 45.2083 9.596C44.6264 10.372 43.9298 10.8922 43.1185 11.1567V11.2626C44.159 11.58 44.9703 12.162 45.5522 13.0085C46.1342 13.8374 46.4252 14.9043 46.4252 16.2093C46.4252 17.2498 46.1871 18.1757 45.7109 18.9869C45.2348 19.7982 44.5294 20.4419 43.5947 20.918C42.66 21.3766 41.5401 21.6058 40.2351 21.6058C38.3305 21.6058 36.7609 21.1208 35.5264 20.1509C34.3096 19.1633 33.657 17.7524 33.5689 15.9183H36.4787C36.5493 16.853 36.9108 17.6202 37.5633 18.2198C38.2158 18.8018 39.0976 19.0927 40.2087 19.0927C41.2844 19.0927 42.1133 18.8018 42.6953 18.2198C43.2772 17.6202 43.5682 16.853 43.5682 15.9183C43.5682 14.6839 43.1714 13.8109 42.3778 13.2995C41.6019 12.7704 40.4026 12.5059 38.7802 12.5059H38.0924V10.0193H38.8066C40.2351 10.0016 41.3197 9.76354 42.0604 9.30501C42.8187 8.84649 43.1979 8.12343 43.1979 7.13584C43.1979 6.28933 42.9245 5.61918 42.3778 5.12539C41.8311 4.61396 41.0552 4.35824 40.0499 4.35824C39.0623 4.35824 38.2952 4.61396 37.7485 5.12539C37.2018 5.61918 36.8755 6.23643 36.7697 6.97712H33.8334ZM48.9052 4.96667V2.21552H54.4075V21.5H51.3653V4.96667H48.9052ZM59.873 21.6852C59.3263 21.6852 58.8678 21.5 58.4974 21.1297C58.1271 20.7593 57.9419 20.3008 57.9419 19.7541C57.9419 19.2074 58.1271 18.7489 58.4974 18.3785C58.8678 18.0082 59.3263 17.823 59.873 17.823C60.4021 17.823 60.8518 18.0082 61.2221 18.3785C61.5925 18.7489 61.7776 19.2074 61.7776 19.7541C61.7776 20.3008 61.5925 20.7593 61.2221 21.1297C60.8518 21.5 60.4021 21.6852 59.873 21.6852ZM63.9788 17.4791V15.2041L72.8672 2.4536H76.5177V14.8602H78.9779V17.4791H76.5177V21.5H73.5549V17.4791H63.9788ZM73.6872 5.52219L67.4442 14.8602H73.6872V5.52219ZM84.4395 11.4213C82.6054 10.5042 81.6883 9.05812 81.6883 7.08293C81.6883 6.13061 81.9264 5.25765 82.4025 4.46405C82.8787 3.67045 83.5929 3.04439 84.5453 2.58587C85.4976 2.10971 86.6615 1.87163 88.0371 1.87163C89.395 1.87163 90.5502 2.10971 91.5025 2.58587C92.4725 3.04439 93.1955 3.67045 93.6717 4.46405C94.1478 5.25765 94.3859 6.13061 94.3859 7.08293C94.3859 8.07052 94.1302 8.94348 93.6188 9.70181C93.125 10.4425 92.4636 11.0157 91.6348 11.4213C92.64 11.7916 93.4336 12.4001 94.0156 13.2466C94.5975 14.0754 94.8885 15.0542 94.8885 16.1829C94.8885 17.3292 94.5975 18.3432 94.0156 19.225C93.4336 20.1068 92.6224 20.7858 91.5819 21.2619C90.5414 21.7381 89.3598 21.9762 88.0371 21.9762C86.7144 21.9762 85.5329 21.7381 84.4924 21.2619C83.4695 20.7858 82.6671 20.1068 82.0851 19.225C81.5031 18.3432 81.2121 17.3292 81.2121 16.1829C81.2121 15.0366 81.5031 14.049 82.0851 13.2201C82.6671 12.3912 83.4519 11.7916 84.4395 11.4213ZM91.5025 7.45328C91.5025 6.46569 91.1939 5.70736 90.5766 5.17829C89.9594 4.64923 89.1129 4.38469 88.0371 4.38469C86.979 4.38469 86.1413 4.64923 85.524 5.17829C84.9068 5.70736 84.5982 6.47451 84.5982 7.47973C84.5982 8.36151 84.9156 9.08457 85.5505 9.64891C86.203 10.1956 87.0319 10.469 88.0371 10.469C89.0423 10.469 89.8712 10.1868 90.5237 9.62245C91.1762 9.05811 91.5025 8.33506 91.5025 7.45328ZM88.0371 12.7439C86.8732 12.7439 85.9208 13.0349 85.1801 13.6169C84.4571 14.1812 84.0956 15.0013 84.0956 16.0771C84.0956 17.0823 84.4483 17.9023 85.1537 18.5372C85.8591 19.1545 86.8203 19.4631 88.0371 19.4631C89.2363 19.4631 90.1798 19.1457 90.8676 18.5108C91.573 17.8759 91.9257 17.0647 91.9257 16.0771C91.9257 15.0189 91.5642 14.1989 90.8412 13.6169C90.1357 13.0349 89.2011 12.7439 88.0371 12.7439ZM101.52 16.2622C101.697 17.144 102.076 17.8142 102.658 18.2727C103.24 18.7312 104.024 18.9605 105.012 18.9605C106.264 18.9605 107.181 18.4667 107.763 17.4791C108.345 16.4915 108.636 14.8073 108.636 12.4265C108.213 13.0261 107.613 13.4935 106.837 13.8285C106.079 14.146 105.25 14.3047 104.351 14.3047C103.204 14.3047 102.164 14.0754 101.229 13.6169C100.295 13.1407 99.5539 12.4441 99.0072 11.5271C98.4781 10.5924 98.2136 9.46373 98.2136 8.14107C98.2136 6.20116 98.7779 4.65804 99.9066 3.51173C101.053 2.34779 102.622 1.76581 104.615 1.76581C107.014 1.76581 108.716 2.56823 109.721 4.17307C110.744 5.76027 111.255 8.20279 111.255 11.5006C111.255 13.7756 111.061 15.6362 110.673 17.0823C110.303 18.5284 109.65 19.6218 108.716 20.3625C107.781 21.1032 106.485 21.4735 104.827 21.4735C102.94 21.4735 101.485 20.9798 100.462 19.9922C99.4393 19.0046 98.8661 17.7613 98.7426 16.2622H101.52ZM104.88 11.7652C105.938 11.7652 106.767 11.4389 107.366 10.7864C107.984 10.1162 108.292 9.23447 108.292 8.14107C108.292 6.92421 107.966 5.98071 107.314 5.31056C106.679 4.62277 105.806 4.27888 104.695 4.27888C103.584 4.27888 102.702 4.63159 102.049 5.33701C101.414 6.0248 101.097 6.93303 101.097 8.06171C101.097 9.13748 101.406 10.0281 102.023 10.7335C102.658 11.4213 103.61 11.7652 104.88 11.7652Z" fill="black"/>
</svg>
